<svg width="438" height="107" viewBox="0 0 438 107" fill="none" xmlns="http://www.w3.org/2000/svg">
<path d="M0 74.55C2.4 93.45 16.35 106.35 42.6 106.35C69.9 106.35 84.15 93.3 84.15 74.55C84.15 59.85 77.55 48.75 47.55 41.55C30.75 37.8 26.4 34.8 26.4 27.6C26.4 20.25 31.8 16.5 40.95 16.5C54.3 16.5 57.75 23.4 58.95 29.85H81.45C79.95 14.7 69 0 41.55 0C17.1 0 3.6 12.15 3.6 30.15C3.6 44.1 10.5 54.45 38.7 61.05C56.4 65.1 61.35 68.7 61.35 77.25C61.35 84.75 56.25 89.55 44.25 89.55C32.25 89.55 24.9 84.9 22.5 74.55H0Z" fill="#121E2C"/>
<path d="M90.607 43.35H102.607V84.15C102.607 97.8 107.557 105.9 122.707 105.9C127.057 105.9 132.907 105.9 137.107 104.4V89.7C135.607 89.85 133.507 89.85 132.307 89.85C125.857 89.85 124.057 87.6 124.057 81.75V43.35H139.357V27.15H124.057V6.15H102.607V27.15H90.607V43.35Z" fill="#121E2C"/>
<path d="M216.22 52.2C216.22 33.6 204.82 25.5 184.12 25.35C160.42 25.35 151.87 36.45 150.82 50.25H171.22C172.12 44.55 174.22 40.8 183.22 40.8C193.27 40.8 195.22 46.2 195.22 51.75V56.4H184.12C161.32 56.4 147.22 64.65 147.22 82.35C147.22 94.35 155.02 106.65 173.77 106.65C187.57 106.65 192.82 101.55 195.67 97.2C195.67 99.15 196.12 103.35 196.72 104.85H217.27C216.82 103.05 216.22 92.25 216.22 84.75V52.2ZM195.22 71.55C195.22 81.75 193.57 91.35 179.92 91.35C172.12 91.35 168.67 86.55 168.67 81C168.67 73.5 173.47 69.45 186.52 69.45H195.22V71.55Z" fill="#121E2C"/>
<path d="M384.15 3.85059H362.55V102.851H384.15V77.9506L394.05 68.3506L413.7 102.851H438L408.45 54.5506L435.45 25.1506H410.85C400.05 38.2006 389.85 50.2006 384.15 58.0006V3.85059Z" fill="#121E2C"/>
<path d="M300 107V4H278V107H300Z" fill="#121E2C"/>
<path d="M336 104.851V28.8506H314V104.851H336Z" fill="url(#paint0_linear)"/>
<path d="M264 105.351V28.8506H242V105.351H264Z" fill="url(#paint1_linear)"/>
<defs>
<linearGradient id="paint0_linear" x1="325" y1="28.8506" x2="325" y2="104.851" gradientUnits="userSpaceOnUse">
<stop stop-color="#8565F2"/>
<stop offset="1" stop-color="#F2EEFF"/>
</linearGradient>
<linearGradient id="paint1_linear" x1="253" y1="28.8506" x2="253" y2="105.351" gradientUnits="userSpaceOnUse">
<stop stop-color="#0174D2"/>
<stop offset="1" stop-color="#DBEFFF"/>
</linearGradient>
</defs>
</svg>
